<svg width="34" height="37" viewBox="0 0 34 37" fill="none" xmlns="http://www.w3.org/2000/svg">
<path d="M17.1674 18.8425V4.45361C23.1817 5.48506 27.9349 10.1225 29.1143 16.1096L29.6527 18.8425H17.1674Z" fill="white"/>
<mask id="path-2-inside-1_15:1801" fill="white">
<path d="M25.5949 22.9538C25.5949 25.7319 24.8444 28.4476 23.4382 30.7575C22.032 33.0674 20.0333 34.8677 17.6948 35.9309C15.3564 36.994 12.7833 37.2721 10.3008 36.7302C7.81834 36.1882 5.53805 34.8504 3.74829 32.886C1.95853 30.9216 0.739692 28.4188 0.2459 25.6941C-0.247893 22.9693 0.0055392 20.1451 0.974149 17.5785C1.94276 15.0119 3.58304 12.8181 5.68757 11.2747C7.7921 9.73127 10.2664 8.90747 12.7975 8.90747V22.9538H25.5949Z"/>
</mask>
<path d="M25.5949 22.9538C25.5949 25.7319 24.8444 28.4476 23.4382 30.7575C22.032 33.0674 20.0333 34.8677 17.6948 35.9309C15.3564 36.994 12.7833 37.2721 10.3008 36.7302C7.81834 36.1882 5.53805 34.8504 3.74829 32.886C1.95853 30.9216 0.739692 28.4188 0.2459 25.6941C-0.247893 22.9693 0.0055392 20.1451 0.974149 17.5785C1.94276 15.0119 3.58304 12.8181 5.68757 11.2747C7.7921 9.73127 10.2664 8.90747 12.7975 8.90747V22.9538H25.5949Z" fill="white" stroke="white" stroke-width="2" mask="url(#path-2-inside-1_15:1801)"/>
<path d="M12.7975 22.6111L4.05774 32.2037" stroke="white"/>
<path d="M26.2192 0V3.76852" stroke="white"/>
<path d="M28.7162 4.79629L31.8375 1.37036" stroke="white"/>
<path d="M29.3405 7.87964H33.7104" stroke="white"/>
</svg>
