<svg width="15" height="15" viewBox="0 0 15 15" fill="none" xmlns="http://www.w3.org/2000/svg">
<path d="M13.9934 1.12154C13.988 1.09562 13.9754 1.07178 13.957 1.05278C13.9386 1.03379 13.9151 1.02045 13.8894 1.01431C12.1735 0.594778 8.20871 2.0898 6.06066 4.23696C5.67754 4.61699 5.32827 5.02968 5.01682 5.47036C4.35442 5.41177 3.69201 5.46069 3.12746 5.70679C1.53459 6.40786 1.07082 8.23716 0.941623 9.02407C0.934295 9.06714 0.937059 9.11133 0.949699 9.15315C0.962338 9.19497 0.984508 9.23329 1.01447 9.26509C1.04442 9.29689 1.08135 9.32131 1.12234 9.33643C1.16333 9.35154 1.20727 9.35694 1.25071 9.3522L3.80861 9.07007C3.81044 9.26292 3.82208 9.45555 3.84348 9.64721C3.85635 9.78032 3.91543 9.9047 4.01047 9.99878L5.001 10.987C5.09516 11.0819 5.2195 11.1409 5.35256 11.154C5.54315 11.1753 5.73471 11.1869 5.92648 11.1888L5.64582 13.7435C5.64114 13.7869 5.64658 13.8308 5.66171 13.8718C5.67685 13.9128 5.70127 13.9497 5.73306 13.9796C5.76485 14.0095 5.80314 14.0317 5.84493 14.0444C5.88673 14.057 5.93088 14.0598 5.97395 14.0526C6.75939 13.9266 8.59191 13.4628 9.28889 11.87C9.53498 11.3054 9.58537 10.6462 9.52853 9.98706C9.97028 9.67558 10.3841 9.32622 10.7652 8.94292C12.9199 6.79897 14.4065 2.92271 13.9934 1.12154ZM8.61535 6.3853C8.41859 6.18867 8.28457 5.9381 8.23023 5.66529C8.1759 5.39248 8.20369 5.10968 8.3101 4.85267C8.41651 4.59566 8.59675 4.37598 8.82803 4.22142C9.0593 4.06686 9.33122 3.98436 9.60939 3.98436C9.88756 3.98436 10.1595 4.06686 10.3908 4.22142C10.622 4.37598 10.8023 4.59566 10.9087 4.85267C11.0151 5.10968 11.0429 5.39248 10.9886 5.66529C10.9342 5.9381 10.8002 6.18867 10.6034 6.3853C10.473 6.51596 10.318 6.61962 10.1474 6.69034C9.97688 6.76106 9.79404 6.79746 9.60939 6.79746C9.42475 6.79746 9.24191 6.76106 9.07134 6.69034C8.90077 6.61962 8.74582 6.51596 8.61535 6.3853Z" fill="#282727"/>
<path d="M4.93359 11.7028C4.77305 11.8636 4.51553 11.9263 4.20557 11.9799C3.50918 12.0986 2.89424 11.4968 3.01934 10.7928C3.06709 10.5259 3.2083 10.1518 3.29619 10.0639C3.3154 10.0451 3.32819 10.0207 3.33274 9.99414C3.33728 9.96762 3.33336 9.94034 3.32152 9.91618C3.30968 9.89202 3.29053 9.8722 3.26679 9.85954C3.24305 9.84688 3.21592 9.84202 3.18926 9.84566C2.79983 9.8933 2.43754 10.0699 2.16006 10.3472C1.47129 11.0366 1.40625 13.5945 1.40625 13.5945C1.40625 13.5945 3.96562 13.5294 4.65439 12.8401C4.93261 12.5628 5.10939 12.2 5.15625 11.81C5.16709 11.6875 5.01797 11.6146 4.93359 11.7028Z" fill="#282727"/>
</svg>
