<svg width="30" height="30" viewBox="0 0 30 30" fill="none" xmlns="http://www.w3.org/2000/svg">
<path d="M27.5134 7.06271C27.4459 6.93142 27.3483 6.81793 27.2286 6.73147C27.1089 6.64502 26.9705 6.58805 26.8247 6.56521C26.6788 6.54237 26.5296 6.55429 26.3893 6.60002C26.2489 6.64574 26.1213 6.72397 26.0169 6.82834L22.4169 10.4307C22.2402 10.6048 22.002 10.7025 21.7539 10.7025C21.5058 10.7025 21.2676 10.6048 21.0909 10.4307L19.5347 8.87209C19.4476 8.78503 19.3785 8.68167 19.3314 8.56792C19.2843 8.45416 19.26 8.33223 19.26 8.2091C19.26 8.08597 19.2843 7.96404 19.3314 7.85029C19.3785 7.73653 19.4476 7.63317 19.5347 7.54611L23.1194 3.96076C23.2269 3.85331 23.3066 3.72135 23.3518 3.57624C23.3969 3.43113 23.4061 3.27723 23.3785 3.12778C23.351 2.97834 23.2875 2.83783 23.1936 2.71837C23.0996 2.5989 22.9781 2.50406 22.8393 2.44201C20.1317 1.23147 16.752 1.86311 14.621 3.97834C12.8104 5.776 12.2708 8.58498 13.1415 11.6852C13.1884 11.8505 13.1887 12.0256 13.1423 12.1911C13.0958 12.3565 13.0045 12.5059 12.8784 12.6227L3.12373 21.5318C2.74372 21.873 2.43719 22.2881 2.22286 22.7516C2.00853 23.2152 1.89089 23.7176 1.8771 24.2281C1.86332 24.7386 1.95368 25.2466 2.14268 25.7211C2.33169 26.1955 2.61536 26.6265 2.97641 26.9877C3.33746 27.3489 3.76831 27.6328 4.24268 27.822C4.71705 28.0112 5.22499 28.1018 5.73552 28.0882C6.24605 28.0747 6.74847 27.9572 7.21213 27.7431C7.67578 27.529 8.09096 27.2226 8.43232 26.8428L17.437 17.0664C17.5521 16.9419 17.699 16.8512 17.8618 16.804C18.0246 16.7569 18.1972 16.755 18.361 16.7986C19.2437 17.0405 20.1541 17.166 21.0692 17.1719C23.0263 17.1719 24.7436 16.5385 25.9823 15.318C28.2763 13.058 28.6261 9.22482 27.5134 7.06271ZM5.83017 26.2012C5.44428 26.2433 5.05482 26.1646 4.71554 25.976C4.37627 25.7873 4.10392 25.498 3.93606 25.148C3.76821 24.798 3.71314 24.4045 3.77845 24.0218C3.84375 23.6392 4.02622 23.2862 4.30066 23.0117C4.57511 22.7371 4.928 22.5545 5.31063 22.4891C5.69327 22.4237 6.08678 22.4786 6.43687 22.6463C6.78695 22.814 7.07635 23.0863 7.26511 23.4255C7.45388 23.7647 7.53271 24.1541 7.49072 24.5401C7.44452 24.9647 7.25474 25.3608 6.95278 25.6628C6.65082 25.9649 6.25477 26.1548 5.83017 26.2012Z" fill="white"/>
</svg>
