<svg width="40" height="40" viewBox="0 0 40 40" fill="none" xmlns="http://www.w3.org/2000/svg">
<g clip-path="url(#clip0_45:3247)">
<path d="M29.1667 39.9999C23.1934 39.9999 18.3334 35.1399 18.3334 29.1666C18.3334 23.1933 23.1934 18.3333 29.1667 18.3333C35.14 18.3333 40 23.1933 40 29.1666C40 35.1399 35.14 39.9999 29.1667 39.9999ZM29.1667 19.9999C24.1134 19.9999 20 24.1133 20 29.1666C20 34.2199 24.1134 38.3333 29.1667 38.3333C34.22 38.3333 38.3334 34.2199 38.3334 29.1666C38.3334 24.1133 34.22 19.9999 29.1667 19.9999Z" fill="#5E5E5F"/>
<path d="M29.1666 35.0001C28.9533 35.0001 28.74 34.9185 28.5766 34.7568L23.5766 29.7568C23.2516 29.4318 23.2516 28.9035 23.5766 28.5785C23.9016 28.2535 24.43 28.2535 24.755 28.5785L29.165 32.9885L33.575 28.5785C33.9 28.2535 34.4283 28.2535 34.7533 28.5785C35.0783 28.9035 35.0783 29.4318 34.7533 29.7568L29.7533 34.7568C29.5933 34.9185 29.38 35.0001 29.1666 35.0001Z" fill="#5E5E5F"/>
<path d="M29.1667 34.9999C28.7067 34.9999 28.3334 34.6266 28.3334 34.1666V24.1666C28.3334 23.7066 28.7067 23.3333 29.1667 23.3333C29.6267 23.3333 30 23.7066 30 24.1666V34.1666C30 34.6266 29.6267 34.9999 29.1667 34.9999Z" fill="#5E5E5F"/>
<path d="M15.8333 35H4.16667C1.86833 35 0 33.1317 0 30.8333V9.16667C0 6.86833 1.86833 5 4.16667 5H7.5C7.96 5 8.33333 5.37333 8.33333 5.83333C8.33333 6.29333 7.96 6.66667 7.5 6.66667H4.16667C2.78833 6.66667 1.66667 7.78833 1.66667 9.16667V30.8333C1.66667 32.2117 2.78833 33.3333 4.16667 33.3333H15.8333C16.2933 33.3333 16.6667 33.7067 16.6667 34.1667C16.6667 34.6267 16.2933 35 15.8333 35Z" fill="#5E5E5F"/>
<path d="M19.1666 10H9.16663C7.78829 10 6.66663 8.87833 6.66663 7.5V4.16667C6.66663 3.70667 7.03996 3.33333 7.49996 3.33333H10.0833C10.47 1.43333 12.155 0 14.1666 0C16.1783 0 17.8633 1.43333 18.25 3.33333H20.8333C21.2933 3.33333 21.6666 3.70667 21.6666 4.16667V7.5C21.6666 8.87833 20.545 10 19.1666 10ZM8.33329 5V7.5C8.33329 7.95833 8.70829 8.33333 9.16663 8.33333H19.1666C19.625 8.33333 20 7.95833 20 7.5V5H17.5C17.04 5 16.6666 4.62667 16.6666 4.16667C16.6666 2.78833 15.545 1.66667 14.1666 1.66667C12.7883 1.66667 11.6666 2.78833 11.6666 4.16667C11.6666 4.62667 11.2933 5 10.8333 5H8.33329Z" fill="#5E5E5F"/>
<path d="M22.5 14.9999H5.83333C5.37333 14.9999 5 14.6266 5 14.1666C5 13.7066 5.37333 13.3333 5.83333 13.3333H22.5C22.96 13.3333 23.3333 13.7066 23.3333 14.1666C23.3333 14.6266 22.96 14.9999 22.5 14.9999Z" fill="#5E5E5F"/>
<path d="M17.5 19.9999H5.83333C5.37333 19.9999 5 19.6266 5 19.1666C5 18.7066 5.37333 18.3333 5.83333 18.3333H17.5C17.96 18.3333 18.3333 18.7066 18.3333 19.1666C18.3333 19.6266 17.96 19.9999 17.5 19.9999Z" fill="#5E5E5F"/>
<path d="M14.1667 24.9999H5.83333C5.37333 24.9999 5 24.6266 5 24.1666C5 23.7066 5.37333 23.3333 5.83333 23.3333H14.1667C14.6267 23.3333 15 23.7066 15 24.1666C15 24.6266 14.6267 24.9999 14.1667 24.9999Z" fill="#5E5E5F"/>
<path d="M27.5 15C27.04 15 26.6667 14.6267 26.6667 14.1667V9.16667C26.6667 7.78833 25.545 6.66667 24.1667 6.66667H20.8333C20.3733 6.66667 20 6.29333 20 5.83333C20 5.37333 20.3733 5 20.8333 5H24.1667C26.465 5 28.3333 6.86833 28.3333 9.16667V14.1667C28.3333 14.6267 27.96 15 27.5 15Z" fill="#5E5E5F"/>
</g>
<defs>
<clipPath id="clip0_45:3247">
<rect width="40" height="40" fill="white"/>
</clipPath>
</defs>
</svg>
