<svg width="15" height="15" viewBox="0 0 15 15" fill="none" xmlns="http://www.w3.org/2000/svg">
<path d="M3.04687 14.5317H2.10937C1.92289 14.5317 1.74405 14.4577 1.61219 14.3258C1.48033 14.1939 1.40625 14.0151 1.40625 13.8286V9.60986C1.40625 9.42338 1.48033 9.24454 1.61219 9.11268C1.74405 8.98082 1.92289 8.90674 2.10937 8.90674H3.04687C3.23335 8.90674 3.4122 8.98082 3.54406 9.11268C3.67592 9.24454 3.75 9.42338 3.75 9.60986V13.8286C3.75 14.0151 3.67592 14.1939 3.54406 14.3258C3.4122 14.4577 3.23335 14.5317 3.04687 14.5317Z" fill="#FF0079"/>
<path d="M9.60937 14.5308H8.67187C8.48539 14.5308 8.30655 14.4567 8.17469 14.3248C8.04283 14.193 7.96875 14.0141 7.96875 13.8276V6.79639C7.96875 6.60991 8.04283 6.43106 8.17469 6.2992C8.30655 6.16734 8.48539 6.09326 8.67187 6.09326H9.60937C9.79585 6.09326 9.9747 6.16734 10.1066 6.2992C10.2384 6.43106 10.3125 6.60991 10.3125 6.79639V13.8276C10.3125 14.0141 10.2384 14.193 10.1066 14.3248C9.9747 14.4567 9.79585 14.5308 9.60937 14.5308Z" fill="#FF0079"/>
<path d="M12.8906 14.5312H11.9531C11.7666 14.5312 11.5878 14.4572 11.4559 14.3253C11.3241 14.1934 11.25 14.0146 11.25 13.8281V3.51562C11.25 3.32914 11.3241 3.1503 11.4559 3.01844C11.5878 2.88658 11.7666 2.8125 11.9531 2.8125H12.8906C13.0771 2.8125 13.2559 2.88658 13.3878 3.01844C13.5197 3.1503 13.5937 3.32914 13.5937 3.51562V13.8281C13.5937 14.0146 13.5197 14.1934 13.3878 14.3253C13.2559 14.4572 13.0771 14.5312 12.8906 14.5312Z" fill="#FF0079"/>
<path d="M6.32812 14.531H5.39062C5.20414 14.531 5.0253 14.4569 4.89344 14.3251C4.76158 14.1932 4.6875 14.0144 4.6875 13.8279V1.17163C4.6875 0.98515 4.76158 0.806308 4.89344 0.674446C5.0253 0.542585 5.20414 0.468506 5.39062 0.468506H6.32812C6.51461 0.468506 6.69345 0.542585 6.82531 0.674446C6.95717 0.806308 7.03125 0.98515 7.03125 1.17163V13.8279C7.03125 14.0144 6.95717 14.1932 6.82531 14.3251C6.69345 14.4569 6.51461 14.531 6.32812 14.531Z" fill="#FF0079"/>
</svg>
