<svg width="32" height="32" viewBox="0 0 32 32" fill="none" xmlns="http://www.w3.org/2000/svg">
<path d="M26.75 14.0005H18C17.2043 14.0005 16.4413 13.6844 15.8787 13.1218C15.3161 12.5592 15 11.7961 15 11.0005V2.25049C15 2.18418 14.9737 2.1206 14.9268 2.07371C14.8799 2.02683 14.8163 2.00049 14.75 2.00049H9C7.93913 2.00049 6.92172 2.42192 6.17157 3.17206C5.42143 3.92221 5 4.93962 5 6.00049V26.0005C5 27.0613 5.42143 28.0788 6.17157 28.8289C6.92172 29.5791 7.93913 30.0005 9 30.0005H23C24.0609 30.0005 25.0783 29.5791 25.8284 28.8289C26.5786 28.0788 27 27.0613 27 26.0005V14.2505C27 14.1842 26.9737 14.1206 26.9268 14.0737C26.8799 14.0268 26.8163 14.0005 26.75 14.0005Z" fill="white"/>
<path d="M26.2012 11.7886L17.2131 2.80051C17.1956 2.78313 17.1734 2.77131 17.1492 2.76653C17.1251 2.76175 17.1 2.76423 17.0772 2.77365C17.0545 2.78306 17.035 2.799 17.0212 2.81946C17.0075 2.83992 17.0001 2.86399 17 2.88864V11.0018C17 11.267 17.1054 11.5213 17.2929 11.7089C17.4804 11.8964 17.7348 12.0018 18 12.0018H26.1131C26.1378 12.0017 26.1618 11.9943 26.1823 11.9805C26.2028 11.9668 26.2187 11.9473 26.2281 11.9245C26.2375 11.9017 26.24 11.8767 26.2352 11.8525C26.2304 11.8283 26.2186 11.8061 26.2012 11.7886Z" fill="white"/>
</svg>
