<svg width="37" height="38" viewBox="0 0 37 38" fill="none" xmlns="http://www.w3.org/2000/svg">
<path d="M2.31238 27.9053C2.31238 29.0076 2.73874 30.0647 3.49768 30.8442C4.25662 31.6236 5.28595 32.0615 6.35925 32.0615H30.6405C31.7138 32.0615 32.7431 31.6236 33.5021 30.8442C34.261 30.0647 34.6874 29.0076 34.6874 27.9053V16.4756H2.31238V27.9053ZM7.08191 22.2646C7.08191 21.6741 7.31032 21.1078 7.71689 20.6902C8.12346 20.2727 8.67489 20.0381 9.24988 20.0381H12.7186C13.2936 20.0381 13.845 20.2727 14.2516 20.6902C14.6582 21.1078 14.8866 21.6741 14.8866 22.2646V23.749C14.8866 24.3395 14.6582 24.9059 14.2516 25.3234C13.845 25.741 13.2936 25.9756 12.7186 25.9756H9.24988C8.67489 25.9756 8.12346 25.741 7.71689 25.3234C7.31032 24.9059 7.08191 24.3395 7.08191 23.749V22.2646Z" fill="white"/>
<path d="M30.6405 5.93555H6.35925C5.28595 5.93555 4.25662 6.37344 3.49768 7.15288C2.73874 7.93233 2.31238 8.98949 2.31238 10.0918V12.0215H34.6874V10.0918C34.6874 8.98949 34.261 7.93233 33.5021 7.15288C32.7431 6.37344 31.7138 5.93555 30.6405 5.93555Z" fill="white"/>
</svg>
