<svg width="29" height="29" viewBox="0 0 29 29" fill="none" xmlns="http://www.w3.org/2000/svg">
<path d="M24.7531 18.7469C23.1738 17.1677 21.294 15.9985 19.243 15.2908C21.4397 13.7779 22.8828 11.2459 22.8828 8.38281C22.8828 3.76054 19.1223 0 14.5 0C9.87773 0 6.11719 3.76054 6.11719 8.38281C6.11719 11.2459 7.56033 13.7779 9.75703 15.2908C7.70607 15.9985 5.82628 17.1677 4.24697 18.7469C1.50828 21.4857 0 25.1269 0 29H2.26562C2.26562 22.2539 7.75393 16.7656 14.5 16.7656C21.2461 16.7656 26.7344 22.2539 26.7344 29H29C29 25.1269 27.4917 21.4857 24.7531 18.7469ZM14.5 14.5C11.127 14.5 8.38281 11.7559 8.38281 8.38281C8.38281 5.00975 11.127 2.26562 14.5 2.26562C17.873 2.26562 20.6172 5.00975 20.6172 8.38281C20.6172 11.7559 17.873 14.5 14.5 14.5Z" fill="#D2D2D2"/>
</svg>
